<svg id="Layer_1" data-name="Layer 1" xmlns="http://www.w3.org/2000/svg" xmlns:xlink="http://www.w3.org/1999/xlink" viewBox="0 0 841.89 297.19"><defs><style>.cls-1{fill:#551c5c;}.cls-2{fill:#f15a29;}.cls-3{fill:url(#linear-gradient);}.cls-4{fill:url(#linear-gradient-2);}</style><linearGradient id="linear-gradient" x1="79.71" y1="114.1" x2="147.19" y2="220.57" gradientTransform="translate(11.17 -21.67) rotate(4.92)" gradientUnits="userSpaceOnUse"><stop offset="0" stop-color="#ffa100"/><stop offset="0.54" stop-color="#ef4136"/><stop offset="1" stop-color="#551c5c"/></linearGradient><linearGradient id="linear-gradient-2" x1="46.79" y1="164.99" x2="108.58" y2="263.91" gradientTransform="translate(11.17 -21.67) rotate(4.92)" gradientUnits="userSpaceOnUse"><stop offset="0" stop-color="#f3903f"/><stop offset="0.53" stop-color="#db215b"/><stop offset="1" stop-color="#551c5c"/></linearGradient></defs><path class="cls-1" d="M240.67,214.39v18.8q0,6.17-3.24,9.19t-9.77,3q-6.61,0-9.86-3t-3.24-9.19v-18.8H221v17.79a8.35,8.35,0,0,0,1.65,5.63,6.19,6.19,0,0,0,4.93,1.89,6.38,6.38,0,0,0,5-1.9,8.26,8.26,0,0,0,1.69-5.62V214.39Z"/><path class="cls-1" d="M260.71,244a9.25,9.25,0,0,1-2.52,1.06,11.46,11.46,0,0,1-2.89.34,10.48,10.48,0,0,1-7.8-3,10.78,10.78,0,0,1-3-7.92,10.43,10.43,0,0,1,3-7.77,10.69,10.69,0,0,1,7.86-3,12.14,12.14,0,0,1,2.89.31,9.15,9.15,0,0,1,2.44,1l0,5.9a6.56,6.56,0,0,0-2.15-1.46,6.43,6.43,0,0,0-2.58-.52,5.34,5.34,0,0,0-4,1.52A5.59,5.59,0,0,0,256.1,240a5.62,5.62,0,0,0,4.57-2.13Z"/><path class="cls-1" d="M264.09,244.61v-32h5.76V224q0,.94-.06,1.89c-.05.62-.11,1.23-.19,1.82a12.58,12.58,0,0,1,3.64-3.07,8.76,8.76,0,0,1,4.08-.95,8.94,8.94,0,0,1,4,.8,5.75,5.75,0,0,1,2.51,2.42,6.52,6.52,0,0,1,.65,1.91,20.25,20.25,0,0,1,.2,3.33v12.47h-5.89v-10c0-2.49-.29-4.14-.86-4.94a3.45,3.45,0,0,0-3-1.19,5.11,5.11,0,0,0-2.24.5,4.72,4.72,0,0,0-1.7,1.44,4.64,4.64,0,0,0-.77,1.65,12.23,12.23,0,0,0-.24,2.83v9.72Z"/><path class="cls-1" d="M304.09,244a9.25,9.25,0,0,1-2.52,1.06,11.46,11.46,0,0,1-2.89.34,10.49,10.49,0,0,1-7.8-3,10.78,10.78,0,0,1-3-7.92,10.43,10.43,0,0,1,3-7.77,10.69,10.69,0,0,1,7.86-3,12.14,12.14,0,0,1,2.89.31,9.15,9.15,0,0,1,2.44,1l0,5.9a6.56,6.56,0,0,0-2.15-1.46,6.43,6.43,0,0,0-2.58-.52,5.3,5.3,0,0,0-4,1.52,5.59,5.59,0,0,0,4.12,9.61,5.62,5.62,0,0,0,4.57-2.13Z"/><path class="cls-1" d="M307.47,244.61v-32h5.76V224q0,.94-.06,1.89c-.05.62-.11,1.23-.19,1.82a12.58,12.58,0,0,1,3.64-3.07,8.76,8.76,0,0,1,4.08-.95,8.94,8.94,0,0,1,4,.8,5.75,5.75,0,0,1,2.51,2.42,6.52,6.52,0,0,1,.65,1.91,20.25,20.25,0,0,1,.2,3.33v12.47h-5.89v-10c0-2.49-.28-4.14-.86-4.94a3.45,3.45,0,0,0-3-1.19,5,5,0,0,0-2.23.5,4.71,4.71,0,0,0-2.48,3.09,12.23,12.23,0,0,0-.24,2.83v9.72Z"/><path class="cls-1" d="M352.83,244.61h-5.69l.08-2.91a7.75,7.75,0,0,1-2.88,2.82,8.6,8.6,0,0,1-4.1.89,8,8,0,0,1-6.49-3,12,12,0,0,1-2.47-7.9q0-5.13,2.43-8a8.35,8.35,0,0,1,6.74-2.86,7.61,7.61,0,0,1,3.95,1,8.07,8.07,0,0,1,2.86,3v-3.34h5.57Zm-5.36-10.16a6.36,6.36,0,0,0-1.38-4.31,4.63,4.63,0,0,0-3.7-1.59,4.75,4.75,0,0,0-3.77,1.58,6.38,6.38,0,0,0-1.37,4.32,6.26,6.26,0,0,0,1.35,4.28,5.42,5.42,0,0,0,7.53,0A6.31,6.31,0,0,0,347.47,234.45Z"/><path class="cls-1" d="M367.81,240.77l3.59-4.07a5.57,5.57,0,0,0,2.19,2.64,6.26,6.26,0,0,0,3.39,1,5.51,5.51,0,0,0,3.59-1.08,3.53,3.53,0,0,0,1.32-2.89q0-2.15-4.4-4.27c-.95-.46-1.7-.83-2.25-1.12a16.79,16.79,0,0,1-5.49-4,7.43,7.43,0,0,1-1.53-4.7,7.57,7.57,0,0,1,3-6.14,11.81,11.81,0,0,1,7.69-2.4,10.76,10.76,0,0,1,4.73,1,9.65,9.65,0,0,1,3.52,3l-3.82,3.65a4.67,4.67,0,0,0-1.8-2,5.39,5.39,0,0,0-2.72-.65,4.72,4.72,0,0,0-3.09,1,3.05,3.05,0,0,0-1.18,2.49c0,1.6,1.56,3,4.67,4.38.61.26,1.09.46,1.42.62a15.92,15.92,0,0,1,5.69,4,7.62,7.62,0,0,1,1.84,5,8.54,8.54,0,0,1-2.9,6.79,11.46,11.46,0,0,1-7.79,2.52,13.51,13.51,0,0,1-5.94-1.19A8.06,8.06,0,0,1,367.81,240.77Z"/><path class="cls-1" d="M391.86,244.61v-32h5.75V224q0,.94-.06,1.89c0,.62-.1,1.23-.18,1.82a12.58,12.58,0,0,1,3.64-3.07,8.76,8.76,0,0,1,4.08-.95,8.94,8.94,0,0,1,4,.8,5.75,5.75,0,0,1,2.51,2.42,6.52,6.52,0,0,1,.65,1.91,20.51,20.51,0,0,1,.19,3.33v12.47h-5.88v-10c0-2.49-.29-4.14-.87-4.94a3.42,3.42,0,0,0-3-1.19,5.08,5.08,0,0,0-2.24.5,4.63,4.63,0,0,0-1.7,1.44,4.48,4.48,0,0,0-.77,1.65,12.23,12.23,0,0,0-.24,2.83v9.72Z"/><path class="cls-1" d="M416.64,216a3.47,3.47,0,0,1,3.43-3.43,3.35,3.35,0,0,1,2.44,1,3.22,3.22,0,0,1,1,2.42,3.3,3.3,0,0,1-1,2.44,3.35,3.35,0,0,1-2.44,1,3.31,3.31,0,0,1-2.42-1A3.37,3.37,0,0,1,416.64,216Zm.52,28.57V224.36H423v20.25Z"/><path class="cls-1" d="M427.93,212.61h5.88v20.71l7.52-9h7.05l-8.15,9,9,11.29h-7.27l-8.11-10.73v10.73h-5.88Z"/><path class="cls-1" d="M448.77,241.06l4.52-2.33a2.84,2.84,0,0,0,1.22,1.85,4.91,4.91,0,0,0,4.73.16,1.64,1.64,0,0,0,.82-1.46c0-1-1-1.79-2.93-2.45l-1.44-.52a14.51,14.51,0,0,1-4.95-2.7,4.58,4.58,0,0,1-1.37-3.37,5.85,5.85,0,0,1,2.33-4.81,11,11,0,0,1,10.87-.74,6.5,6.5,0,0,1,2.9,3.1l-4.31,2.14a3.14,3.14,0,0,0-1.22-1.72,3.8,3.8,0,0,0-2.17-.59,3.7,3.7,0,0,0-2.1.54,1.62,1.62,0,0,0-.81,1.4c0,1,1.34,1.94,4,2.81l.72.23a11.75,11.75,0,0,1,4.73,2.54,5.17,5.17,0,0,1,1.4,3.71,5.71,5.71,0,0,1-2.33,4.79,10.2,10.2,0,0,1-6.3,1.77,11.31,11.31,0,0,1-5.35-1.16A5.92,5.92,0,0,1,448.77,241.06Z"/><path class="cls-1" d="M469,244.61v-32h5.76V224c0,.63,0,1.26-.07,1.89s-.1,1.23-.18,1.82a12.58,12.58,0,0,1,3.64-3.07,8.76,8.76,0,0,1,4.08-.95,8.94,8.94,0,0,1,4,.8,5.75,5.75,0,0,1,2.51,2.42,6.52,6.52,0,0,1,.65,1.91,20.25,20.25,0,0,1,.2,3.33v12.47h-5.89v-10c0-2.49-.29-4.14-.86-4.94a3.45,3.45,0,0,0-3-1.19,5.08,5.08,0,0,0-2.24.5,4.72,4.72,0,0,0-1.7,1.44,4.48,4.48,0,0,0-.77,1.65,12.23,12.23,0,0,0-.24,2.83v9.72Z"/><path class="cls-1" d="M514.34,244.61h-5.69l.08-2.91a7.75,7.75,0,0,1-2.88,2.82,8.6,8.6,0,0,1-4.1.89,8,8,0,0,1-6.49-3,12,12,0,0,1-2.47-7.9q0-5.13,2.43-8a8.35,8.35,0,0,1,6.74-2.86,7.61,7.61,0,0,1,4,1,8.07,8.07,0,0,1,2.86,3v-3.34h5.57ZM509,234.45a6.36,6.36,0,0,0-1.38-4.31,4.63,4.63,0,0,0-3.7-1.59,4.75,4.75,0,0,0-3.77,1.58,6.38,6.38,0,0,0-1.37,4.32,6.26,6.26,0,0,0,1.35,4.28,5.41,5.41,0,0,0,7.52,0A6.26,6.26,0,0,0,509,234.45Z"/><path class="cls-1" d="M529.32,240.77l3.59-4.07a5.57,5.57,0,0,0,2.19,2.64,6.24,6.24,0,0,0,3.39,1,5.51,5.51,0,0,0,3.59-1.08,3.53,3.53,0,0,0,1.32-2.89q0-2.15-4.4-4.27c-1-.46-1.7-.83-2.25-1.12a16.79,16.79,0,0,1-5.49-4,7.43,7.43,0,0,1-1.53-4.7,7.57,7.57,0,0,1,3-6.14,11.8,11.8,0,0,1,7.68-2.4,10.83,10.83,0,0,1,4.74,1,9.65,9.65,0,0,1,3.52,3l-3.82,3.65a4.67,4.67,0,0,0-1.8-2,5.39,5.39,0,0,0-2.72-.65,4.72,4.72,0,0,0-3.09,1,3.05,3.05,0,0,0-1.18,2.49c0,1.6,1.55,3,4.66,4.38.62.26,1.1.46,1.43.62a15.92,15.92,0,0,1,5.69,4,7.62,7.62,0,0,1,1.84,5,8.54,8.54,0,0,1-2.9,6.79,11.46,11.46,0,0,1-7.79,2.52,13.51,13.51,0,0,1-5.94-1.19A8,8,0,0,1,529.32,240.77Z"/><path class="cls-1" d="M573.66,244.61H568l.08-2.91a7.75,7.75,0,0,1-2.88,2.82,8.6,8.6,0,0,1-4.1.89,8,8,0,0,1-6.49-3,12,12,0,0,1-2.46-7.9c0-3.42.8-6.08,2.42-8a8.35,8.35,0,0,1,6.74-2.86,7.61,7.61,0,0,1,4,1,8.07,8.07,0,0,1,2.86,3v-3.34h5.58Zm-5.37-10.16a6.4,6.4,0,0,0-1.37-4.31,4.65,4.65,0,0,0-3.71-1.59,4.75,4.75,0,0,0-3.77,1.58,6.38,6.38,0,0,0-1.37,4.32,6.26,6.26,0,0,0,1.35,4.28,5.42,5.42,0,0,0,7.53,0A6.31,6.31,0,0,0,568.29,234.45Z"/><path class="cls-1" d="M578.13,244.61V224.36h5.76v3.18a10.76,10.76,0,0,1,3.41-2.92,9.72,9.72,0,0,1,8-.15,5.87,5.87,0,0,1,2.53,2.43,6.24,6.24,0,0,1,.65,1.91,20.25,20.25,0,0,1,.2,3.33v12.47h-5.88v-10c0-2.49-.29-4.14-.87-4.94a3.45,3.45,0,0,0-3-1.19,5,5,0,0,0-2.24.5,4.75,4.75,0,0,0-1.71,1.44,4.82,4.82,0,0,0-.77,1.65,12.23,12.23,0,0,0-.24,2.83v9.72Z"/><path class="cls-1" d="M601.22,241.06l4.52-2.33a2.84,2.84,0,0,0,1.22,1.85,4.91,4.91,0,0,0,4.73.16,1.64,1.64,0,0,0,.82-1.46c0-1-1-1.79-2.93-2.45l-1.44-.52a14.51,14.51,0,0,1-4.95-2.7,4.58,4.58,0,0,1-1.37-3.37,5.85,5.85,0,0,1,2.33-4.81,11,11,0,0,1,10.87-.74,6.5,6.5,0,0,1,2.9,3.1l-4.31,2.14a3.14,3.14,0,0,0-1.22-1.72,3.8,3.8,0,0,0-2.17-.59,3.7,3.7,0,0,0-2.1.54,1.62,1.62,0,0,0-.81,1.4c0,1,1.34,1.94,4,2.81l.72.23a11.75,11.75,0,0,1,4.73,2.54,5.17,5.17,0,0,1,1.4,3.71,5.71,5.71,0,0,1-2.33,4.79,10.2,10.2,0,0,1-6.3,1.77,11.33,11.33,0,0,1-5.35-1.16A5.92,5.92,0,0,1,601.22,241.06Z"/><path class="cls-1" d="M622.15,244.61V229h-2.83v-4.6h2.83v-6.73H628v6.73h2.83V229H628v15.65Z"/><path class="cls-1" d="M633.44,244.61v-32h5.76V224c0,.63,0,1.26-.07,1.89s-.1,1.23-.18,1.82a12.58,12.58,0,0,1,3.64-3.07,8.76,8.76,0,0,1,4.08-.95,8.94,8.94,0,0,1,4,.8,5.75,5.75,0,0,1,2.51,2.42,6.52,6.52,0,0,1,.65,1.91,20.25,20.25,0,0,1,.2,3.33v12.47h-5.89v-10c0-2.49-.28-4.14-.86-4.94a3.45,3.45,0,0,0-3-1.19,5,5,0,0,0-2.23.5,4.71,4.71,0,0,0-2.48,3.09,12.23,12.23,0,0,0-.24,2.83v9.72Z"/><path class="cls-1" d="M678.8,244.61h-5.69l.08-2.91a7.75,7.75,0,0,1-2.88,2.82,8.6,8.6,0,0,1-4.1.89,8,8,0,0,1-6.49-3,12,12,0,0,1-2.47-7.9q0-5.13,2.43-8a8.35,8.35,0,0,1,6.74-2.86,7.61,7.61,0,0,1,4,1,8.07,8.07,0,0,1,2.86,3v-3.34h5.57Zm-5.36-10.16a6.36,6.36,0,0,0-1.38-4.31,4.63,4.63,0,0,0-3.7-1.59,4.75,4.75,0,0,0-3.77,1.58,6.38,6.38,0,0,0-1.37,4.32,6.26,6.26,0,0,0,1.35,4.28,5.41,5.41,0,0,0,7.52,0A6.26,6.26,0,0,0,673.44,234.45Z"/><path class="cls-1" d="M683.28,244.61V224.36H689v3.18a10.76,10.76,0,0,1,3.41-2.92,8.7,8.7,0,0,1,4.06-.94,8.8,8.8,0,0,1,4,.79A5.87,5.87,0,0,1,703,226.9a6.52,6.52,0,0,1,.65,1.91,20.25,20.25,0,0,1,.2,3.33v12.47H698v-10c0-2.49-.28-4.14-.86-4.94a3.45,3.45,0,0,0-3-1.19,5,5,0,0,0-2.24.5,4.71,4.71,0,0,0-2.48,3.09,12.23,12.23,0,0,0-.24,2.83v9.72Z"/><path class="cls-2" d="M221.13,195.33l-9.83-26.61h6.28l5.18,16.59c.1.34.25,1,.46,1.89s.42,2,.65,3.15c.16-1.14.33-2.15.52-3a21.69,21.69,0,0,1,.56-2.18l5.25-16.41h6.21l-9.9,26.61Z"/><path class="cls-2" d="M237.65,170.17a3,3,0,0,1,3-3,3,3,0,0,1,2.16.88,2.88,2.88,0,0,1,.9,2.13,2.92,2.92,0,0,1-.9,2.15,3,3,0,0,1-2.16.89,2.85,2.85,0,0,1-2.12-.91A2.92,2.92,0,0,1,237.65,170.17Zm.45,25.16V177.5h5.16v17.83Z"/><path class="cls-2" d="M265.45,195.33h-5l.07-2.57a6.66,6.66,0,0,1-2.53,2.48,7.55,7.55,0,0,1-3.61.8,7,7,0,0,1-5.71-2.64,12.44,12.44,0,0,1,0-14,7.32,7.32,0,0,1,5.93-2.53,6.5,6.5,0,0,1,3.42.89,9.18,9.18,0,0,1,2.76,2.82c-.06-.44-.1-.92-.13-1.45s0-1.13,0-1.8V167.16h4.91Zm-4.73-9a5.58,5.58,0,0,0-1.21-3.79,4.05,4.05,0,0,0-3.26-1.4,4.16,4.16,0,0,0-3.31,1.37,6.57,6.57,0,0,0,0,7.57,4.13,4.13,0,0,0,3.3,1.36,4.2,4.2,0,0,0,3.32-1.34A5.51,5.51,0,0,0,260.72,186.38Z"/><path class="cls-2" d="M274,193.94l-7.18-16.44h6l3.09,8.16a11.11,11.11,0,0,1,.51,1.75,20.79,20.79,0,0,1,.3,2.21c.13-.65.28-1.32.46-2s.4-1.4.67-2.16l2.71-8h5.92l-10.61,25.93h-5.72Z"/><path class="cls-2" d="M305.66,195.33h-5l.08-2.57a6.75,6.75,0,0,1-2.54,2.48,7.55,7.55,0,0,1-3.61.8,7,7,0,0,1-5.71-2.64,12.45,12.45,0,0,1,0-14,7.39,7.39,0,0,1,5.94-2.51,6.63,6.63,0,0,1,3.48.89,7.14,7.14,0,0,1,2.51,2.65V177.5h4.91Zm-4.73-9a5.63,5.63,0,0,0-1.2-3.79,4.09,4.09,0,0,0-3.27-1.4,4.14,4.14,0,0,0-3.31,1.39,5.56,5.56,0,0,0-1.21,3.8,5.47,5.47,0,0,0,1.19,3.77,4.76,4.76,0,0,0,6.62,0A5.51,5.51,0,0,0,300.93,186.38Z"/><path class="cls-2" d="M320.56,195.33V168.72h5a38,38,0,0,1,5.66.3,10.2,10.2,0,0,1,3.09,1,6.28,6.28,0,0,1,3.24,5.63,5.18,5.18,0,0,1-1.4,3.79,7.41,7.41,0,0,1-4.18,1.9,8.52,8.52,0,0,1,4.86,2.09,5.77,5.77,0,0,1,1.65,4.31,7,7,0,0,1-.95,3.59,6.57,6.57,0,0,1-2.6,2.52,11.29,11.29,0,0,1-3.45,1.14,43,43,0,0,1-6.56.35h-4.34Zm5.68-16h1.28a6.74,6.74,0,0,0,3.65-.73,2.72,2.72,0,0,0,1.07-2.43,2.66,2.66,0,0,0-1-2.38,6.65,6.65,0,0,0-3.59-.71h-1.38Zm0,11.54h2.24a4.94,4.94,0,0,0,3.25-.93,3.39,3.39,0,0,0,1.11-2.74,3.13,3.13,0,0,0-1.1-2.58,5,5,0,0,0-3.19-.89h-2.31Z"/><path class="cls-2" d="M341.4,195.33V167.16h5.07v10c0,.56,0,1.11-.06,1.66s-.09,1.09-.16,1.61a11.06,11.06,0,0,1,3.21-2.71,8.53,8.53,0,0,1,7.08-.12,5,5,0,0,1,2.21,2.12,5.85,5.85,0,0,1,.58,1.68,18.67,18.67,0,0,1,.17,2.94v11h-5.18v-8.82c0-2.19-.26-3.64-.76-4.34a3,3,0,0,0-2.62-1.06,4.32,4.32,0,0,0-2,.45,4.15,4.15,0,0,0-1.5,1.26,3.92,3.92,0,0,0-.68,1.46,10.77,10.77,0,0,0-.21,2.49v8.56Z"/><path class="cls-2" d="M381.34,195.33h-5l.08-2.57a6.75,6.75,0,0,1-2.54,2.48,7.55,7.55,0,0,1-3.61.8,7,7,0,0,1-5.71-2.64,12.45,12.45,0,0,1,0-14,7.39,7.39,0,0,1,5.94-2.51,6.63,6.63,0,0,1,3.48.89,7.14,7.14,0,0,1,2.51,2.65V177.5h4.91Zm-4.73-9a5.63,5.63,0,0,0-1.2-3.79,4.09,4.09,0,0,0-3.27-1.4,4.14,4.14,0,0,0-3.31,1.39,6.57,6.57,0,0,0,0,7.57,4.76,4.76,0,0,0,6.62,0A5.51,5.51,0,0,0,376.61,186.38Z"/><path class="cls-2" d="M390.28,182.08a8.19,8.19,0,0,1,2.24-3.89,5.31,5.31,0,0,1,3.63-1.29,11.85,11.85,0,0,1,1.62.18l.32,0-.78,5.57a6.55,6.55,0,0,0-1.17-.36,6.24,6.24,0,0,0-1.25-.12,4.26,4.26,0,0,0-3.39,1.21,6.22,6.22,0,0,0-1,4v7.86h-5.18V177.5h5.11Z"/><path class="cls-2" d="M417.37,195.33h-5l.07-2.57a6.68,6.68,0,0,1-2.54,2.48,7.51,7.51,0,0,1-3.6.8,7,7,0,0,1-5.72-2.64,12.45,12.45,0,0,1,0-14,7.41,7.41,0,0,1,5.94-2.51,6.63,6.63,0,0,1,3.48.89,7.06,7.06,0,0,1,2.51,2.65V177.5h4.91Zm-4.72-9a5.63,5.63,0,0,0-1.21-3.79,4.08,4.08,0,0,0-3.26-1.4,4.15,4.15,0,0,0-3.32,1.39,6.57,6.57,0,0,0,0,7.57,4.77,4.77,0,0,0,6.63,0A5.56,5.56,0,0,0,412.65,186.38Z"/><path class="cls-2" d="M422,195.33V181.55h-2.49V177.5H422v-5.93h5.18v5.93h2.49v4.05h-2.49v13.78Z"/><path class="cls-2" d="M431.63,170.17a3,3,0,0,1,3-3,3,3,0,0,1,2.15.88,2.88,2.88,0,0,1,.9,2.13,2.92,2.92,0,0,1-.9,2.15,3,3,0,0,1-2.15.89,2.87,2.87,0,0,1-2.13-.91A3,3,0,0,1,431.63,170.17Zm.46,25.16V177.5h5.16v17.83Z"/><path class="cls-1" d="M234.16,114.52a7,7,0,0,1,3.37,6.21,4.68,4.68,0,0,1-1,3.18,4.11,4.11,0,0,1-1.28,1.14l-1.83.81a13.05,13.05,0,0,1,5.4,4.32l1.29,2.3a9.83,9.83,0,0,1,.47,2,6.79,6.79,0,0,1-3.11,5.6,11.87,11.87,0,0,1-3.1,1.75,14.52,14.52,0,0,1-3,.48l-2.7-.07a11.14,11.14,0,0,1-6.55-2.7,22.3,22.3,0,0,1-6.48-7.9l-.2-.54-.07-.47a1.28,1.28,0,0,1,.14-.68l.6-.27,2.7-.06a2.72,2.72,0,0,1,1.15,1.41,18.47,18.47,0,0,0,4.46,5.74,11.53,11.53,0,0,0,4.25,2.5l1.76-.61,1.68-1.08a5.56,5.56,0,0,0,2.23-4.46q0-2-2.5-4.33l-1-.74a2.53,2.53,0,0,0-.91-.47,7.85,7.85,0,0,0-2-.75l-.61.15-2.23.41-.74.07h-2.7l-1.48-3.78a1.73,1.73,0,0,0,.81-.14l.94-.13h2.7l.54.13,1.15.14h.34l.27.06,1.69-.4,1.35-.82a3.59,3.59,0,0,0,1.62-2.92l-.21-1.91-.6-1.63-.41-.61-.34-.48-.4-.27-.41-.14H214.38L213,110.94h28.22l1.48,3.58Z"/><path class="cls-1" d="M240.23,114.52l-1.42-3.58h27.48v3.58Zm24.71,18.68a7.81,7.81,0,0,1-2,1.09l-2.7.75-3.11.14-2.7-.07-1.35-.07a7.11,7.11,0,0,1-1.28-.47l-1.35-.67-1.35-1.08a11.19,11.19,0,0,1-1.86-2.47,5.33,5.33,0,0,1-.78-2.6,4.59,4.59,0,0,1,1.56-3.24h-4.19l-1.48-2.83h18.29l1.49,2.83h-5.68l-.81.2a1.45,1.45,0,0,0-.81.27l-.87.61a1.79,1.79,0,0,0-.81.67,4.73,4.73,0,0,0-1.69,3.28,4.18,4.18,0,0,0,1.42,3l1,.74,1.15.4a6.88,6.88,0,0,0,2-.74l2.36-1.35a12,12,0,0,0,4.19-3.51l2.7-.07v3.55A3.36,3.36,0,0,1,264.94,133.2Z"/><path class="cls-1" d="M289.31,114.52v29.91h-2.7l-2.84-2.23V134l-.2.14-.34.2-2.76.68-3,.2h-4.05a7.24,7.24,0,0,1-1.28-.48l-1.35-.69-1.35-1.1a11.13,11.13,0,0,1-1.86-2.51,5.53,5.53,0,0,1-.78-2.65,4.68,4.68,0,0,1,1.56-3.3h-4.19l-1.49-2.84h18.3l1.48,2.84h-5.67l-.81.2a1.45,1.45,0,0,0-.81.27l-.87.61a1.86,1.86,0,0,0-.81.67,4.81,4.81,0,0,0-1.69,3.31,4.25,4.25,0,0,0,1.42,3l1,.74,1.08.4,2-.67,2.29-1.28a16.08,16.08,0,0,0,4.25-3.45V114.52H260.55l-1.42-3.58h35.18l1.48,3.58Z"/><path class="cls-1" d="M342.71,107l-4.32-2.77a18.76,18.76,0,0,0-3.31-1.49A15.86,15.86,0,0,0,332,102a7,7,0,0,0-2.33.4,7.86,7.86,0,0,0-1.86.94,4.42,4.42,0,0,0-2.16,4.22v1.07l.07.88a2.93,2.93,0,0,0,.13.8l.34.6h5.4l1.49,3.58h-6.35v29.77H324L321,142.06V114.52H317.6l-1.42-3.58H321l-.41-.67-.27-1.28-.2-1.42-.07-1.28a6.15,6.15,0,0,1,2.43-5.27q2.24-1.76,6.76-1.89l2.7-.07q4.59-.14,11.68,4.86c.58.41,1.32,1,2.22,1.76L349.8,109v.67h-2.7Z"/><path class="cls-1" d="M349.87,114.52l1.48,1.62L352.5,118l.67,2,.27,2a12.51,12.51,0,0,1-.74,4.11,12.37,12.37,0,0,1-9.05,8.51l7.58,9.84-1.35,1.3h-2.71l-7.77-10.67a8.24,8.24,0,0,1-2.83-.47,4.53,4.53,0,0,1-2.1-1.55l-.4-.81-.07-1.22.07-.88.2-.74.41-.47c.09-.14.27-.2.54-.2l2.7-.07A2.16,2.16,0,0,1,339,129l1.08.61.87.94.95,1.42.94-.54,1-.82a10,10,0,0,0,2.83-3.93l-1-.2-.74-.2a15.1,15.1,0,0,1-6.89-3.87l-.67-.88-.61-1.29-.4-1.42-.14-1.35a3.68,3.68,0,0,1,1.15-2.92h-7.09l-1.42-3.58h30.38l1.42,3.58Zm-2.43,3.85a6.32,6.32,0,0,0-.75-2.16l-1-1.28a3.49,3.49,0,0,0-1.28-.81l-.68.47-.61.54-.74,1.55-.27,2.16a4.53,4.53,0,0,0,2,4.19l1.48.94a8.27,8.27,0,0,0,1.63.54l.4-1.55.14-2A11,11,0,0,0,347.44,118.37Z"/><path class="cls-1" d="M365.86,114.52v29.91h-2.73l-2.94-2.23V114.52h-3.44l-1.42-3.58H371.4l1.49,3.58Z"/><path class="cls-1" d="M395.91,126.47l-1.29.47-1.48.41h-1.55l-4.65,0-2.24-.49-1.54-.51-1.63-.59-1.76,1.35-1.21,1.08a7.69,7.69,0,0,0-1.35,1.76,6.07,6.07,0,0,0-.48,1.69,5.14,5.14,0,0,0,1.83,4.33l1.14.74,1.29.41.81-.21a2.21,2.21,0,0,0,.81-.34l-.54-1-.41-1-.34-.89-.06-.89c-.05-.68.4-1.11,1.35-1.3h2.7a4.37,4.37,0,0,1,1.58.34,5.34,5.34,0,0,1,1.59,1l1.28,1.22a2.78,2.78,0,0,1,.47,1.08l-.2.81-.54.74-.74.68-.61.6,4.93,7.77-2.09.74h-2.7L384,138.69h2.7l-1,.47h-3.85a12.26,12.26,0,0,1-3.44-.61,13.94,13.94,0,0,1-4.93-3.57,8.27,8.27,0,0,1-2.29-5.47q0-1.69,2.83-3.78l1.15-.68,2.09-1.28-2.43-1.55-2-1.83a6,6,0,0,1-1.68-3.71,5.05,5.05,0,0,1,2.09-4.05,7,7,0,0,1,4.32-1.62l2.7-.07q2-.06,5.06,2.64a10.35,10.35,0,0,1,2.06,2.6,5.44,5.44,0,0,1,.71,2.66,2.45,2.45,0,0,1-.34,1.22l-1,1.35-.74.74-.74.68-.95.81-.94.67,1.48.54,1.55.34.95.13,1,.07,1.49-.2,1.41-.41a6.07,6.07,0,0,0,1.56-.87l1.15-1.49,2.7-.07v3.45Zm-14.25-12.29-.61-.54-.67-.27-1.15.54a3.3,3.3,0,0,0-1,.88l-.68.81-.47.81-.27.88-.07.81a2.45,2.45,0,0,0,.21,1.25,2.93,2.93,0,0,0,.94,1.18l.74.81,1,.74.74-.61.74-.67a3.77,3.77,0,0,0,1.49-2.7C382.61,116,382.29,114.72,381.66,114.18Zm6.62.34-1.49-3.58h9.93v3.58Z"/><path class="cls-1" d="M398.74,114.52v29.91H396l-2.94-2.23V114.52h-3.44l-1.42-3.58h16.07l1.48,3.58Z"/><path class="cls-1" d="M411.36,114.52v29.91h-2.73l-2.94-2.23V114.52h-3.44l-1.42-3.58H416.9l1.49,3.58Z"/><path class="cls-1" d="M469,114.52v29.91h-2.7L463.41,142V131H458.5l-2.35-.21a14.07,14.07,0,0,1-2.28-1.05l-.54-.28-.47-.35-.47.6-.61.53-1.21.79-1.41.53,11.36,12.06-1.42.82h-2.71L445.73,133a37.92,37.92,0,0,1-2.91-3.51,6.09,6.09,0,0,1-.94-2.77l.27-.61.4-.54.48-.33.67-.14,2.7-.07a2.73,2.73,0,0,1,1.89,1l.2-1,.14-1.28v-9.25h-8.58l-1.48-3.58h35.37l1.42,3.58Zm-5.54,0h-9.25v10.67a3.28,3.28,0,0,0,1.8,2.29l.87.41,1,.2L459,128l1.26-.34,1.2-.34,2-.61Z"/><path class="cls-1" d="M472.05,105.27h-2.7l-2.8-2.84,2.8-2.84h2.7l2.7,2.84Z"/><path class="cls-1" d="M499.8,130.52l-1,.27a6,6,0,0,0-1.41.14h-4.44l-2.35-.21a14.32,14.32,0,0,1-2.29-1l-.54-.27-.47-.34-.47.6-.61.53L485,131l-1.41.53L495,143.61l-1.42.82h-2.71L480.16,133a37.92,37.92,0,0,1-2.91-3.51,6.09,6.09,0,0,1-.94-2.77l.27-.61.4-.54.48-.33.67-.14,2.7-.07a2.73,2.73,0,0,1,1.89,1l.2-1,.14-1.28v-9.25h-8.58L473,110.94h27.61v3.58h-12v10.67a3.27,3.27,0,0,0,1.81,2.29l.86.41,1,.2,1.13-.13,1.27-.34,1.33-.34,1.94-.61,2.67-.06v3.51Z"/><path class="cls-1" d="M516.21,134.91l-2.17.67-2.16.21-2.7-.07a16,16,0,0,1-3.44-.41,12.09,12.09,0,0,1-5.87-4,17.81,17.81,0,0,1-1.83-3.24,12.23,12.23,0,0,0,2.3-.74l2-.88a9.25,9.25,0,0,0,2-1.21l1.56-1.49a9.59,9.59,0,0,1-5.88-2c-1.8-1.36-2.7-2.77-2.7-4.26,0-3.1,1.22-5.11,3.65-6a9.92,9.92,0,0,1,2.83-.47l2.7-.07a7.18,7.18,0,0,1,5.61,2.16,7.87,7.87,0,0,1,2,4.05,8.83,8.83,0,0,1,.14,1.69,6.61,6.61,0,0,1-.88,3.11,13.16,13.16,0,0,1-3,3.64l-3,2.57a24,24,0,0,1-2.43,1.35,5.08,5.08,0,0,0,.67,1.82l1.29,1.35,1.08.68,1.28.33,1.55-.4a6.92,6.92,0,0,0,1.79-.74q.78-.48,2.4-1.62a28.64,28.64,0,0,0,2.23-2.16l2.7-.07v3.58l-.61.6A8,8,0,0,1,516.21,134.91Zm-7.77-19.11a3.94,3.94,0,0,0-.74-1.82l-.61-.74-.61-.54-.87.47-.68.54a5.11,5.11,0,0,0-1.35,3.78c0,.81.61,1.82,1.82,3l.41.4.47.41.41.41.47.27.47-.68.27-.47.34-.68.27-.74.13-.68.07-.67A8,8,0,0,0,508.44,115.8Zm4.25-1.28-1.55-3.58H520v3.58Z"/><path class="cls-1" d="M522.55,114.52v29.91h-2.73l-2.94-2.23V114.52h-3.44L512,110.94h16.07l1.48,3.58Z"/><path class="cls-1" d="M535.17,114.52v29.91h-2.73l-2.94-2.23V114.52h-3.44l-1.42-3.58h16.07l1.48,3.58Z"/><path class="cls-1" d="M561.5,114.52v29.91h-2.73l-2.94-2.23V128h-6.34v3.51q0,1.42-.81,1.62H546l-.6-.13-.81-.62-2.77-3.71a4.29,4.29,0,0,1-.61-1l-.2-.89q0-1.65,2.22-1.65h12.63V114.52h-17l-1.34-3.58h28.89l1.49,3.58Z"/><path class="cls-2" d="M236.34,53.15l-3.63-2.33a16.13,16.13,0,0,0-2.78-1.24,12.39,12.39,0,0,0-2.61-.63,5.65,5.65,0,0,0-2,.34,6.31,6.31,0,0,0-1.56.79A3.72,3.72,0,0,0,222,53.63v.9l.06.73a2.79,2.79,0,0,0,.11.68l.29.5H227l1.25,3h-5.34v25h-2.3l-2.47-1.87V59.45h-2.89l-1.19-3h4.08l-.34-.57-.22-1.07-.17-1.2-.06-1.07a5.18,5.18,0,0,1,2-4.43,9.63,9.63,0,0,1,5.68-1.59l2.27-.06q3.85-.11,9.82,4.09c.49.34,1.11.83,1.87,1.48l3.29,2.78v.56H240Z"/><path class="cls-2" d="M247.47,59.45V84.59H245.2l-2.39-1.87V76.08l-.34.28a.8.8,0,0,0-.34.12l-.23.11-.17.06-1.93.62-1.81.17h-2.27a7.24,7.24,0,0,1-5.22-2.11,7.53,7.53,0,0,1-2.5-5.64,5.22,5.22,0,0,1,1.76-3.93,7.79,7.79,0,0,1,4.2-2.05l1.36-.23h2.27a8.82,8.82,0,0,1,4.26,1.19l.51.29.45.34V59.45H226.24l-1.3-3h26.73l1.19,3Zm-4.66,9.48-2.21-1.31-1.87-.9-1-.29-.85-.23a3.22,3.22,0,0,0-1.31.46l-1.24.79a4.84,4.84,0,0,0-1.71,3.41,10.1,10.1,0,0,0,.57,3.18c.19.22.34.39.46.51l.73.68.8.34,1.59-.46,1.76-.9a16.5,16.5,0,0,0,3.29-2.27l1-1Z"/><path class="cls-2" d="M274.77,59.45V84.59H272.5l-2.39-1.87V80l-1.25.62-1.47.51-2.95.85-2.44.23h-2.27a8.71,8.71,0,0,1-2.16-.46,6.87,6.87,0,0,1-2.7-2.54,6.46,6.46,0,0,1-1.1-3.51,2.86,2.86,0,0,1,.11-.91l.45-1,.57-.8a.87.87,0,0,1,.63-.4,1.26,1.26,0,0,1-.69-.23l-.68-.46-.73-.63-.69-.85a6.12,6.12,0,0,1-1.36-3.88l.17-1.32a3,3,0,0,1,1.53-1.88,4.23,4.23,0,0,1,1.31-.34h6V59.45H250.7l-1.19-3H279l1.14,3Zm-4.66,0H265v6h-7.2c-1.56,0-2.33.81-2.33,2.42l.17,1.18.57,1.07a2.91,2.91,0,0,0,.9.84l1.31.45H265l1.14,2.38h-5.28a2.33,2.33,0,0,0-2.33,2l-.11,1.19.17,1.59a4,4,0,0,0,.62,1.31l.57.68.74.34,1.59-.4,1.87-.74a19.62,19.62,0,0,0,6.13-3.8Z"/><path class="cls-2" d="M285.72,59.45V84.59h-2.3L281,82.72V59.45h-2.89l-1.2-3h13.51l1.25,3Z"/><path class="cls-2" d="M323,72.56v3.07a1.1,1.1,0,0,1-.11.56l-.4.12h-2.61l-.23-.12-.34-.23-.34-.29-3.07-3.18-.62-.87-.23-.69a.61.61,0,0,1,.23-.52l.62-.23h2.44V66.54a8.59,8.59,0,0,1-3.88-1,6.16,6.16,0,0,1-2.87-2.64,4.84,4.84,0,0,1-.45-2.16,4.11,4.11,0,0,1,1.36-3,4.9,4.9,0,0,1,2.84-1.25l2.27-.06a3.79,3.79,0,0,1,1.93.57,6.06,6.06,0,0,1,3,3.11,6.68,6.68,0,0,1,.45,1.8v8.26h8.29v2.38Zm-4.66-11.92c0-.72-.15-1.15-.46-1.3l-.24-.12-.29-.11-.41.23-.23.34-.29,1V62a3,3,0,0,0,1.3,2.78L318,65l.11.11.17.06Zm5.4-1.19-1.76-3h9.31v3Z"/><path class="cls-2" d="M334.81,59.45V84.59h-2.3L330,82.72V59.45h-2.89l-1.19-3h13.5l1.25,3Z"/><path class="cls-2" d="M345.42,59.45V84.59h-2.29l-2.47-1.87V59.45h-2.9l-1.19-3h13.51l1.25,3Z"/><path class="cls-2" d="M360.69,59.45v8.33a6.87,6.87,0,0,1-1.41,4.43l-1.25,1-1.52.62,9.55,10.14-1.24.66h-2.26l-9-9.59q-3-3.12-3.18-5.28l.22-.51.34-.45.4-.29.57-.11,2.27-.06a1.34,1.34,0,0,1,.74.23l.79.51.17-.79.12-1V59.45h-7.21l-1.19-3h17.82l1.13,3Z"/><path class="cls-2" d="M385,59.45V84.59h-2.27l-2.38-1.87V67.17h-4.15a4.67,4.67,0,0,0-1.76.34,3.17,3.17,0,0,0-2.1,1.7,6.78,6.78,0,0,0-.34,1.65,14.36,14.36,0,0,0,.85,5.11,25.4,25.4,0,0,0,2.33,4.59l2.22,2.84h-3.47l-2.15-3.08-2.1-3.2a13.45,13.45,0,0,1-1.76-3.57,10.65,10.65,0,0,1-.57-3.17,5,5,0,0,1,1.79-4.14,6.48,6.48,0,0,1,4.23-1.45h7V59.45H364.89l-1.31-3h25.6l1.19,3Z"/><path class="cls-2" d="M397,59.45V84.59h-2.27l-2.84-1.87V59.45H389l-1.25-3h4.66c0-3.55-1-5.92-2.95-7.09a4.43,4.43,0,0,0-1.76-.85,2,2,0,0,0-.85.45l-.8.74-.45.68-.34.68-.17.74-.12.68-.17,1.13a.7.7,0,0,1-.56.4l-2.33,0-.29-.06-.34-.46-.22-.51-.12-.45a7.63,7.63,0,0,1,1.42-4.57,4.76,4.76,0,0,1,4-2l2.21-.06a4.54,4.54,0,0,1,2.84.9,9.72,9.72,0,0,1,4.31,5.82,13.62,13.62,0,0,1,.57,3.89h4.94l1.24,3Z"/><path class="cls-3" d="M85.27,100.59s-21.64,27.55-3.81,44.3c0,0,9.13,7.69,31.12,27,6.9,6.06,13.71,13.52,17.67,21.8,8.83,18.47,7.14,57.62-31.6,71.6,0,0,13.41,3.46,37.71-3.65,52.16-15.27,69.4-80.65,32-120-.59-.62-1.2-1.25-1.82-1.88-.84-.86-1.72-1.68-2.61-2.48-6.69-6-37.31-33.78-46.45-48.1,0,0-24.38-30.5-22.52-58.74,0,0-21.23,30.05.49,70.07a91.79,91.79,0,0,0,20.11,25c15.23,13.42,51.24,41.73,48.79,70.17,0,0-1.21,14.1-11.52,21.83,0,0,7.07-10.19-4.11-34A98.84,98.84,0,0,0,127,153.66C113.51,141,88.53,125.56,85.27,100.59Z"/><path class="cls-4" d="M61.74,205.33c0-.19,0-.38,0-.57.06-1.24.78-9.59,8.28-22.21,3-5,4-6.78,5.24-11.47,2.27-8.57,1.83-22.57-8-29.86,0,0-26.56,30.51-34.6,61.3,0,0-13.07,40.29,36.22,54.81,9,2.64,18.58,2.1,27.58-.41,9.47-2.64,20.18-8.4,25.35-20.87l.35-.81c1.68-3.84,17.29-42.8-30.93-65.45,0,0-3.61,8.73,6.68,21.63a21.74,21.74,0,0,1,6.41,17.17s-2,18.56-20.92,19.64c0,0-14,.07-19.62-12.19-.07-.17-.15-.33-.24-.5A20.31,20.31,0,0,1,61.74,205.33Z"/></svg>